<svg width="16" height="16" viewBox="0 0 16 16" fill="none" xmlns="http://www.w3.org/2000/svg">
<g clip-path="url(#clip0_42365_642)">
<path d="M7.72903 15.0832H3.55585C2.42173 15.0832 1.50153 14.1596 1.50153 13.0289V2.97114C1.50153 1.83701 2.42512 0.916808 3.55585 0.916808H7.79694C8.05161 0.916808 8.25535 0.713073 8.25535 0.458404C8.25535 0.203735 8.05161 0 7.79694 0H3.55585C1.91579 0 0.584717 1.33447 0.584717 2.97114V13.0289C0.584717 14.6689 1.91918 16 3.55585 16H7.72903C7.9837 16 8.18743 15.7963 8.18743 15.5416C8.18743 15.2869 7.9803 15.0832 7.72903 15.0832Z" fill="#E1E1E6"/>
<path d="M15.2807 7.67742L12.3673 4.764C12.1874 4.58404 11.8987 4.58404 11.7188 4.764C11.5388 4.94397 11.5388 5.23259 11.7188 5.41256L13.8512 7.54499H4.55069C4.29602 7.54499 4.09229 7.74872 4.09229 8.00339C4.09229 8.25806 4.29602 8.4618 4.55069 8.4618H13.8512L11.7188 10.5942C11.5388 10.7742 11.5388 11.0628 11.7188 11.2428C11.8071 11.3311 11.9259 11.3786 12.0414 11.3786C12.1568 11.3786 12.2756 11.3345 12.3639 11.2428L15.2773 8.32937C15.4607 8.14601 15.4607 7.85399 15.2807 7.67742Z" fill="#E1E1E6"/>
</g>
<defs>
<clipPath id="clip0_42365_642">
<rect width="16" height="16" fill="white"/>
</clipPath>
</defs>
</svg>
