<svg width="41" height="38" viewBox="0 0 41 38" fill="none" xmlns="http://www.w3.org/2000/svg">
<path opacity="0.5" d="M40.9313 0.256714L31.1262 34.9917C31.0764 35.1494 30.8769 35.1967 30.7606 35.0863L24.1962 28.8583L29.1154 11.4514C29.1652 11.2937 29.0156 11.1518 28.8495 11.1991L10.5023 15.8662L3.97112 9.66969C3.85478 9.55932 3.90464 9.37011 4.07083 9.32281L40.6654 0.00444022C40.8316 -0.027094 40.9812 0.11481 40.9313 0.256714Z" fill="#00B37E"/>
<path opacity="0.5" d="M24.1958 28.858L21.6698 37.8452C21.6199 38.0029 21.4205 38.0502 21.3041 37.9398L0.929489 18.6251C0.813158 18.5147 0.863014 18.3255 1.0292 18.2782L10.5019 15.8658L24.1958 28.858Z" fill="#00B37E"/>
<path d="M29.1145 11.4511L24.1954 28.858L10.5015 15.8659L28.8486 11.1988C29.0148 11.1515 29.1644 11.2934 29.1145 11.4511Z" fill="#00B37E"/>
</svg>
